<!--?xml version="1.0" encoding="utf-8"?-->
<!-- Svg Vector Icons : http://www.onlinewebfonts.com/icon -->

<svg version="1.1" xmlns="http://www.w3.org/2000/svg" xmlns:xlink="http://www.w3.org/1999/xlink" x="0px" y="0px" viewBox="0 0 256 256" enable-background="new 0 0 256 256" xml:space="preserve">
<metadata> Svg Vector Icons : http://www.onlinewebfonts.com/icon </metadata>
<g><g><path fill="#ffffff" data-title="Layer 0" xs="0" d="M129.1,77.5c-1,0-3.1,0-3.9-0.3c-0.5-0.2-0.3-0.3-1.1-0.4c-1-0.2-4-1.1-4.9-1.6l-4.3-1.7c0,0-0.1,0-0.1,0c-1.2-0.6-0.8-0.3-1.7-0.6l-3.3-1.2c-0.7-0.2-0.6-0.3-1.1-0.5c-0.4-0.2-0.8-0.1-1.2-0.3c-0.5-0.2-0.4-0.3-1.1-0.5c-0.9-0.2-1.3-0.5-2.3-0.7c-0.9-0.1-1.3-0.5-2.5-0.6c-1-0.1-1.2-0.5-2.3-0.6c-2.2-0.1-2.2-0.8-5.2-0.8c-1.1,0-1.7-0.3-2.8-0.3c-1.6,0-3.5-0.1-5.1,0.2l-3.4,0.3c-1,0-1.8,0.5-3.2,0.6c-0.9,0.1-0.7,0.2-1.4,0.4c-0.6,0.2-1,0.1-1.6,0.3c-0.8,0.2-0.3,0.4-1.5,0.5l-5.5,2c-0.4,0.2-0.2,0.2-0.6,0.4l-3.5,1.6c-1.6,0.8-4.2,2.4-5.6,3.4c-0.4,0.3-0.1,0.1-0.6,0.4c-0.3,0.2-0.3,0.2-0.6,0.4l-3.8,2.9c0,0,0,0-0.1,0.1l-0.9,0.8c0,0,0,0-0.1,0.1L53.7,82c0,0,0,0-0.1,0.1c0,0,0,0-0.1,0.1l-6.1,6.6c-0.2,0.2-0.2,0.3-0.4,0.5c-0.1,0.2-0.2,0.3-0.4,0.5l-1.2,1.5c-0.2,0.3-0.2,0.4-0.4,0.6c-0.3,0.4-0.5,0.7-0.7,1.1l-1.1,1.7c-0.3,0.4-0.1,0.1-0.3,0.6l-2.7,4.8c-0.2,0.3-0.2,0.2-0.3,0.6l-1.1,2.3c-0.4,0.6-0.4,1-0.7,1.6c-0.6,1-0.9,2.4-1.4,3.4l-0.9,2.8c-0.2,1-0.4,0.6-0.6,1.4c-0.4,1.9-0.4,1.3-0.7,3c-0.1,0.6-0.3,0.8-0.5,1.4c-0.1,0.6-0.1,1.1-0.3,1.7c-0.1,0.5-0.3,0.7-0.4,1.4c-0.1,0.7-0.1,1-0.2,1.7c-0.1,0.7-0.3,0.8-0.4,1.4c-0.2,1.2-0.1,2.5-0.4,3.5c-0.7,2.6-0.6,19.3-0.2,21.9l0.5,4.6c0.1,0.8,0.4,1.2,0.4,2c0,0.8,0.1,1.6,0.2,2.4c0.1,0.8,0.4,1.2,0.5,2c0.1,0.7,0.1,1.6,0.3,2.3c0.3,0.8,0.3,1,0.4,2c0.1,1,0.5,1.3,0.6,2c0.2,1.1,0,1.1,0.4,2.1c0.3,0.8,0.2,1.4,0.4,2.2c0.2,0.8,0.4,0.8,0.6,1.9c0.2,1,0.4,1,0.6,2c0.1,0.5,0,0.7,0.2,1.1c0.2,0.6,0.2,0.1,0.4,1c0.3,1.5,0.5,1.3,0.7,2c0.1,0.5,0,0.6,0.2,1.1c0.1,0.3,0.3,0.5,0.4,0.8c0.1,0.4,0.1,0.6,0.2,1c0.2,0.7,0.2,0.3,0.5,0.9c0.1,0.4,0.1,0.6,0.2,1c0.1,0.4,0.3,0.5,0.4,0.8c0.1,0.3,0.1,0.7,0.2,1l0.7,1.9c0.3,0.6,0.2,0,0.4,0.8c0.2,0.8,0.5,1.1,0.7,1.9c0.2,0.6,0.1,0.4,0.4,0.8c0.3,0.6,0.1,0.4,0.3,0.9c0.2,0.6,0.2,0.3,0.4,0.8c0.2,0.4,0.1,0.6,0.3,1l4.7,9.8c0,0,0,0.1,0,0.1l0.6,1.1c0.2,0.3,0.2,0.6,0.4,0.9l0.9,1.7c0.2,0.5,0.2,0.4,0.4,0.8l8.1,12.7c1.1,1.6,3.2,4.1,4.1,5.4l1.7,2.2c0,0,0,0.1,0.1,0.1c0,0,0,0.1,0.1,0.1c0,0,0,0.1,0.1,0.1l2.4,2.9c0.1,0.1,0.2,0.2,0.3,0.3l0.5,0.6c0,0,0,0,0.1,0.1c0,0,0,0.1,0.1,0.1l0.8,0.9c0,0,0,0,0.1,0.1c0,0,0,0,0.1,0.1c0,0,0,0,0.1,0.1l0.1,0.1c1.2,1.3,2.3,2.7,3.7,3.9c0.5,0.4,0.9,0.7,1.4,1.2l8.4,5.6c0.8,0.5,2.6,1.1,3.5,1.5l3.2,0.8c2.3,0.2,4.9,0.2,7.2,0c1-0.1,1.5-0.5,2.5-0.6c1.4-0.1,1.4-0.4,2.5-0.6c1-0.2,1.4-0.5,2.4-0.7c0.9-0.1,1.4-0.5,2.2-0.7c0.7-0.2,0.8-0.4,1.7-0.6c0.7-0.2,0.4-0.3,1.1-0.5c0.2,0,0.4-0.1,0.6-0.1c0.7-0.2,0.5-0.3,1.1-0.5c0.5-0.2,0.6-0.1,1.2-0.4l2.1-0.8c0.5-0.2,0.8-0.1,1.3-0.3c0.7-0.3,0.1-0.3,1-0.5l1.7-0.6c0.2,0,0.5-0.1,0.6-0.1c0.6-0.1,0.7-0.2,1.1-0.4c0.5-0.2,0.7-0.1,1.3-0.3c0.7-0.1,0.5-0.3,1.1-0.4l5.3-0.9c2.7-0.4,6.2-0.5,8.9-0.1c0.8,0.1,1.7,0.1,2.5,0.2c0.8,0.1,0.9,0.5,2.2,0.6c0.9,0.1,1.4,0.4,2.3,0.6c1.4,0.3,3.4,1.2,4.3,1.3l8.7,3.2c0.8,0.2,0.7,0.4,1.6,0.6c0.9,0.2,3.2,1.2,4.4,1.3c1.1,0.1,1.6,0.5,2.4,0.6c1,0.2,1.5,0.1,2.4,0.3c2.4,0.6,5.7,0.5,8-0.1c0.5-0.1,1-0.2,1.5-0.2c1,0,0.7-0.1,1.5-0.4c0.6-0.2,0.8-0.1,1.4-0.3l5-2.2c0.3-0.1,0.4-0.2,0.6-0.3l2.1-1.4c0.2-0.2,0.2-0.2,0.5-0.4c1.2-0.8,2.5-1.8,3.5-2.8l2.6-2.6c0.1-0.1,0.1-0.1,0.2-0.2l2.8-3.1c0.6-0.7,1.1-1.3,1.7-2l0.5-0.7c0,0,0-0.1,0.1-0.1c0,0,0,0,0.1-0.1l2.1-2.8c0,0,0,0,0.1-0.1c0.1-0.1,0.1-0.2,0.2-0.3l4.1-5.7c0.2-0.3,0.2-0.2,0.4-0.5l9.1-14.6c0.1-0.3,0,0,0.2-0.3c0.3-0.5,0.1,0,0.3-0.6l0.7-1.4c0,0,0-0.1,0-0.1l2.7-5.6c0.1-0.2,0,0,0.2-0.3c0.2-0.3,0,0,0.1-0.3c0.1-0.2,0.1-0.4,0.2-0.7l0.8-1.8c0.5-0.8,0.7-2,1.1-2.9l0.4-0.6c0.1-0.3,0-0.1,0.1-0.4c0.3-1,0.8-2.2,1.2-3.3l0.4-1.4c0.5-0.8,0.6-2-0.4-2.6c-0.8-0.4-1.5-0.6-2.3-1.1c-1.4-0.9-3.1-1.5-4.5-2.6c-1.6-1.2-3.3-2.1-4.8-3.3c0,0-0.1,0-0.1-0.1l-3.1-2.6c0,0-0.2-0.2-0.2-0.2c0,0,0,0-0.1-0.1c0,0,0,0-0.1-0.1c-0.3-0.3-0.1-0.3-0.7-0.4c0-0.6-0.5-0.8-1.3-1.6c-0.2-0.2-0.2-0.2-0.4-0.4l-3.8-4.6c-0.1-0.2-0.2-0.2-0.3-0.3c-0.1-0.2-0.2-0.3-0.3-0.5l-2.9-4.7c-0.1-0.3-0.1-0.3-0.2-0.6c-0.2-0.4-0.1-0.1-0.3-0.5c-0.5-0.8-0.6-1.7-1.1-2.6c-0.2-0.3-0.1-0.1-0.3-0.5l-0.8-2.3c-0.2-0.7-0.3-0.6-0.5-1.1c-0.2-0.5-0.1-0.7-0.3-1.3c-0.2-0.5-0.3-0.4-0.4-1.1c-0.1-0.6-0.1-0.9-0.2-1.3c-0.5-1.5-0.3-0.8-0.5-2.4c-0.1-1-0.6-1.5-0.6-2.5c0-2.1-0.6-3.8-0.6-5.5v-7.7c0-1.7,0.5-3.6,0.6-5.5c0-0.7,0.3-1.1,0.4-1.7s0.1-1.1,0.2-1.8c0.2-0.8,0.4-0.6,0.5-1.6c0.1-0.7,0.3-1.1,0.5-1.6l2.7-6.8c0.2-0.4,0.2-0.3,0.4-0.7l0.7-1.3c0.2-0.3,0.2-0.4,0.4-0.7l0.8-1.3c0.1-0.1,0.1-0.1,0.2-0.3l0.9-1.4c0,0,0-0.1,0.1-0.1l2.2-2.7c0.2-0.2,0.1-0.1,0.3-0.4l9-8.4c0.2-0.1,0.2-0.1,0.4-0.3c0.5-0.3,0.8-0.5,1.3-0.9l1-0.7c0.7-0.5,1.4-0.8,2.1-1.5c0.6-0.6,0.2-1.2-0.2-1.7l-2.9-3.9c-0.4-0.5-0.7-0.7-1-1.1c-0.1-0.1-0.1-0.1-0.2-0.2l-3.4-3.5c-0.2-0.2-0.4-0.3-0.6-0.5l-1.9-1.6c-0.3-0.2-0.1,0-0.3-0.3l-10.8-6.3c-0.7-0.2-0.4-0.3-1-0.5l-2.6-1c-0.4-0.2,0.1,0-0.3-0.2c-0.5-0.2-0.9-0.2-1.4-0.3c-0.5-0.2-0.2-0.2-0.7-0.3c-0.7-0.2-1,0-1.7-0.4l-3.2-0.9c-2.5-0.3-1.9-0.5-3.6-0.7c-1.8-0.2-3.6-0.7-5.6-0.7l-4.6-0.1c-2.3,0-4.2,0.2-6.3,0.3c-1.1,0-1.5,0.4-2.7,0.5c-0.2,0-1.2,0.1-1.5,0.2c-0.7,0.2-0.4,0.3-1.3,0.4c-1.8,0.2-1.3,0.3-2.6,0.6c-0.4,0.1-1,0.1-1.4,0.3c-0.6,0.2-0.5,0.3-1.3,0.4c-1,0.2-1.5,0.5-2.5,0.7l-3.7,1.3c-0.9,0.2-0.2,0.3-1.2,0.5c-0.6,0.2-0.7,0.1-1.3,0.4l-6.1,2.2c-0.8,0.2-0.5,0.2-1,0.5c-0.5,0.2-0.9,0.2-1.4,0.5l-4.8,1.6C131.1,77.4,130.2,77.5,129.1,77.5z"/><path fill="#ffffff" data-title="Layer 1" xs="1" d="M127.2,58.4c0,1.8-0.2,4.4,0.1,6.1c1.5,0.7,6.5,0.2,8.3,0.1l4.6-0.9c0.4-0.1,0.7-0.2,1.1-0.3c0.8-0.1,0.7-0.3,2.2-0.7c0.6-0.1,1.3-0.6,1.9-0.9c0.5-0.3,0.6-0.2,1.1-0.4l2.2-1.2c0,0,0.2-0.1,0.2-0.1l9.8-7.7c0.3-0.3,0.4-0.4,0.7-0.8c0.2-0.2,0.1-0.1,0.3-0.3l0.5-0.6c0,0,0,0,0.1-0.1c0,0,0,0,0.1-0.1c0.1-0.1,0.3-0.3,0.4-0.4l5.6-7.1c0.2-0.3,0.1-0.1,0.3-0.5l0.9-1.3c0.2-0.3,0.4-0.6,0.5-0.9l1.8-3.2c0.2-0.3,0.1,0,0.3-0.5l2.1-5c0.2-0.7,0.3-0.6,0.5-1.1c0.1-0.3,0.1-0.8,0.2-1.1c0.1-0.4,0.3-0.4,0.4-1l0.6-2.3c0.1-0.8,0.1-1.6,0.4-2.4c0.5-1.5,0.4-3.3,0.7-5c0.4-2.3,0.2-4.9,0.2-7.3c0-1.2-0.2-1.7-1.3-1.8c-1.2-0.1-2.9,0.3-4,0.6c-1,0.3-1.5,0.1-2.5,0.6c-0.7,0.3-1.4,0.3-2.4,0.7c-0.5,0.2-0.7,0.1-1.3,0.3l-2.7,1.1c-0.2,0-0.4,0.1-0.6,0.1l-5.2,2.5c-0.7,0.3-0.4,0.2-1,0.5c-0.3,0.2-0.2,0.1-0.5,0.3l-1.6,1c-1.2,0.6-2.1,1.4-3.3,2.1l-1.2,0.8c-0.2,0.1-0.3,0.2-0.5,0.3l-4.6,3.9l-4.3,4.9c-1.4,1.7-4.1,5.3-5,7.3l-3.1,6.2l-1.9,5.8c-0.1,0.5-0.1,0.8-0.2,1.3c-0.1,0.9-0.5,1.4-0.6,2.5C127.7,55.2,127.2,56.4,127.2,58.4z"/></g></g>
</svg>